<svg width="36" height="24" viewBox="0 0 36 24" fill="none" xmlns="http://www.w3.org/2000/svg">
<rect width="36" height="24" rx="4" fill="url(#paint0_linear)"/>
<path fill-rule="evenodd" clip-rule="evenodd" d="M21.7015 11.261C20.9711 10.9027 20.5238 10.6637 20.5286 10.3008C20.5286 9.97892 20.9072 9.63475 21.7252 9.63475C22.4085 9.62407 22.9035 9.77449 23.2892 9.93145L23.4764 10.0209L23.7597 8.34231C23.3456 8.1855 22.6969 8.01712 21.8869 8.01712C19.8221 8.01712 18.3677 9.06745 18.3554 10.5728C18.3438 11.6856 19.3936 12.3064 20.1863 12.6768C20.9996 13.0565 21.273 13.2984 21.2692 13.6376C21.2641 14.1567 20.6197 14.3937 20.0191 14.3937C19.1827 14.3937 18.7383 14.2764 18.0521 13.9872L17.7829 13.8641L17.4897 15.5977C17.9778 15.8139 18.8802 16.0013 19.8173 16.011C22.0138 16.011 23.4397 14.9727 23.4559 13.3652C23.4638 12.4841 22.9071 11.8137 21.7015 11.261Z" fill="white"/>
<path fill-rule="evenodd" clip-rule="evenodd" d="M26.5412 13.1507C26.7141 12.7045 27.3737 10.9858 27.3737 10.9858C27.3614 11.0065 27.5453 10.5375 27.6508 10.2468L27.7921 10.9145C27.7921 10.9145 28.1921 12.7631 28.2759 13.1507H26.5412ZM29.1179 8.15915H27.5033C27.0031 8.15915 26.6287 8.29697 26.4091 8.80136L23.3058 15.8985H25.4999C25.4999 15.8985 25.8588 14.9443 25.9399 14.7348C26.1797 14.7348 28.3112 14.7381 28.616 14.7381C28.6785 15.0091 28.8702 15.8985 28.8702 15.8985H30.8091L29.1179 8.15915Z" fill="white"/>
<path fill-rule="evenodd" clip-rule="evenodd" d="M12.3397 8.15734L10.2939 13.4385L10.076 12.3652L9.34333 8.80637C9.21674 8.31592 8.8499 8.16965 8.39613 8.15259H5.02673L5 8.3137C5.81959 8.51412 6.55253 8.80326 7.19487 9.16316L9.05256 15.8894L11.2634 15.8869L14.5531 8.15734H12.3397Z" fill="white"/>
<path fill-rule="evenodd" clip-rule="evenodd" d="M15.3987 8.15167L14.0923 15.8962H16.181L17.4883 8.15167H15.3987Z" fill="white"/>
<defs>
<linearGradient id="paint0_linear" x1="-24.009" y1="0" x2="-24.009" y2="56.012" gradientUnits="userSpaceOnUse">
<stop stop-color="#29ACFF"/>
<stop offset="1" stop-color="#0097F6"/>
<stop offset="1" stop-color="#0097F6"/>
</linearGradient>
</defs>
</svg>
