<svg width="57" height="22" viewBox="0 0 57 22" fill="none" xmlns="http://www.w3.org/2000/svg">
<path d="M26.2111 10.699V17.1852H24.1494V1.16797H29.6151C31.0004 1.16797 32.1815 1.62898 33.148 2.55099C34.1359 3.473 34.6298 4.59871 34.6298 5.92813C34.6298 7.2897 34.1359 8.41541 33.148 9.3267C32.1923 10.238 31.0111 10.6883 29.6151 10.6883H26.2111V10.699ZM26.2111 3.14065V8.72632H29.6581C30.4742 8.72632 31.1614 8.44758 31.6983 7.9008C32.246 7.35403 32.5252 6.68932 32.5252 5.93884C32.5252 5.19909 32.246 4.54511 31.6983 3.99833C31.1614 3.43012 30.4849 3.15137 29.6581 3.15137H26.2111V3.14065Z" fill="white"/>
<path d="M40.0207 5.86523C41.5455 5.86523 42.7481 6.27263 43.6287 7.08744C44.5092 7.90224 44.9495 9.01723 44.9495 10.4324V17.1867H42.9844V15.6643H42.8985C42.0502 16.9187 40.9119 17.5405 39.4945 17.5405C38.2811 17.5405 37.2717 17.1867 36.4556 16.4684C35.6395 15.7501 35.2314 14.8602 35.2314 13.7881C35.2314 12.6517 35.661 11.7511 36.52 11.0864C37.3791 10.411 38.5281 10.0786 39.9562 10.0786C41.1804 10.0786 42.1898 10.3038 42.9736 10.754V10.2823C42.9736 9.564 42.6945 8.96362 42.1253 8.45973C41.5562 7.95584 40.8904 7.70926 40.128 7.70926C38.9791 7.70926 38.0663 8.1917 37.4006 9.16732L35.5858 8.03089C36.5844 6.58354 38.0663 5.86523 40.0207 5.86523ZM37.3576 13.8203C37.3576 14.3563 37.5831 14.8066 38.0448 15.1604C38.4958 15.5142 39.0328 15.6964 39.6448 15.6964C40.5146 15.6964 41.2878 15.3748 41.9643 14.7316C42.6408 14.0883 42.9844 13.3378 42.9844 12.4694C42.3401 11.9655 41.4488 11.7082 40.2998 11.7082C39.4623 11.7082 38.7643 11.9119 38.2059 12.3086C37.6368 12.7267 37.3576 13.2306 37.3576 13.8203Z" fill="white"/>
<path d="M56.1609 6.21875L49.2885 22.0002H47.1623L49.718 16.4788L45.1865 6.21875H47.4308L50.6952 14.088H50.7381L53.9166 6.21875H56.1609Z" fill="white"/>
<path d="M18.0111 9.3918C18.0111 8.72066 17.951 8.07847 17.8393 7.46094H9.19727V10.9989L14.1744 11C13.9725 12.1771 13.3229 13.1806 12.3274 13.8496V16.145H15.2901C17.02 14.5465 18.0111 12.1836 18.0111 9.3918Z" fill="#4285F4"/>
<path d="M12.3288 13.8492C11.5041 14.4046 10.4421 14.7294 9.19965 14.7294C6.79967 14.7294 4.76372 13.1149 4.03459 10.9385H0.978516V13.3057C2.4926 16.3054 5.60451 18.3639 9.19965 18.3639C11.6845 18.3639 13.772 17.548 15.2914 16.1436L12.3288 13.8492Z" fill="#34A853"/>
<path d="M3.74655 9.18299C3.74655 8.57189 3.84856 7.98116 4.03433 7.42581V5.05859H0.978247C0.352211 6.29902 0 7.69919 0 9.18299C0 10.6668 0.353285 12.067 0.978247 13.3074L4.03433 10.9402C3.84856 10.3848 3.74655 9.79409 3.74655 9.18299Z" fill="#FABB05"/>
<path d="M9.19965 3.63444C10.5559 3.63444 11.7704 4.10081 12.7293 5.0121L15.3548 2.39294C13.7601 0.910219 11.6812 0 9.19965 0C5.60559 0 2.4926 2.05844 0.978516 5.0582L4.03459 7.42541C4.76372 5.24903 6.79967 3.63444 9.19965 3.63444Z" fill="#E94235"/>
</svg>
