<svg width="16" height="24" viewBox="0 0 16 24" fill="none" xmlns="http://www.w3.org/2000/svg">
<path fill-rule="evenodd" clip-rule="evenodd" d="M8 20C12.4183 20 16 16.4183 16 12C16 7.58172 12.4183 4 8 4C3.58172 4 0 7.58172 0 12C0 16.4183 3.58172 20 8 20ZM11.7071 10.7071C12.0968 10.3174 12.0978 9.68597 11.7093 9.29509C11.3208 8.90422 10.6894 8.90128 10.2973 9.28852L11 10L10.2973 9.28856L10.2971 9.28866L10.2967 9.28908L10.2951 9.29071L10.2886 9.29714L10.2632 9.32224L10.166 9.41826L9.81199 9.76861C9.51475 10.0629 9.10795 10.4663 8.66977 10.9021C8.11075 11.4582 7.49643 12.0714 6.99329 12.5791L5.70711 11.2929C5.31658 10.9024 4.68342 10.9024 4.29289 11.2929C3.90237 11.6834 3.90237 12.3166 4.29289 12.7071L6.29289 14.7071C6.68342 15.0976 7.31658 15.0976 7.70711 14.7071L11.7071 10.7071Z" fill="#00B23B"/>
</svg>