<svg width="52" height="22" viewBox="0 0 52 22" fill="none" xmlns="http://www.w3.org/2000/svg">
<path d="M9.80186 2.83696C10.4124 2.07327 10.8268 1.04785 10.7175 0C9.8237 0.0444432 8.73299 0.589665 8.10153 1.35396C7.53455 2.00846 7.03272 3.07681 7.16354 4.08073C8.16687 4.16776 9.16927 3.57923 9.80186 2.83696Z" fill="black"/>
<path d="M10.7057 4.27632C9.2486 4.18953 8.00973 5.10328 7.3139 5.10328C6.61769 5.10328 5.55215 4.32006 4.39968 4.34117C2.89968 4.3632 1.50784 5.21132 0.746651 6.56022C-0.818989 9.25869 0.333479 13.2615 1.85598 15.4592C2.59534 16.5465 3.4864 17.7437 4.6605 17.7007C5.76983 17.6572 6.20464 16.9824 7.55308 16.9824C8.90053 16.9824 9.2922 17.7007 10.4665 17.6789C11.6843 17.6572 12.4456 16.5911 13.1849 15.5027C14.0331 14.2633 14.3803 13.0665 14.4022 13.0008C14.3803 12.979 12.054 12.0866 12.0324 9.41053C12.0104 7.16984 13.8589 6.10404 13.9459 6.03795C12.902 4.49413 11.2711 4.32006 10.7057 4.27632Z" fill="black"/>
<path d="M23.3916 1.24512C26.5586 1.24512 28.7638 3.42811 28.7638 6.60638C28.7638 9.79599 26.5132 11.9903 23.3122 11.9903H19.8058V17.5665H17.2725V1.24512H23.3916V1.24512ZM19.8058 9.86384H22.7127C24.9184 9.86384 26.1737 8.67635 26.1737 6.61772C26.1737 4.55931 24.9184 3.38295 22.724 3.38295H19.8058V9.86384V9.86384Z" fill="black"/>
<path d="M29.4268 14.1841C29.4268 12.1028 31.0216 10.8248 33.8495 10.6664L37.1067 10.4742V9.55807C37.1067 8.23466 36.2131 7.44293 34.7204 7.44293C33.3062 7.44293 32.4239 8.12144 32.2093 9.18478H29.9019C30.0376 7.03561 31.8698 5.45215 34.8107 5.45215C37.6949 5.45215 39.5384 6.97911 39.5384 9.36565V17.5659H37.197V15.6092H37.1407C36.4509 16.9326 34.9464 17.7695 33.3856 17.7695C31.0556 17.7695 29.4268 16.3217 29.4268 14.1841ZM37.1067 13.1096V12.1709L34.1771 12.3517C32.718 12.4536 31.8925 13.0983 31.8925 14.1163C31.8925 15.1567 32.7521 15.8354 34.0641 15.8354C35.772 15.8354 37.1067 14.6591 37.1067 13.1096Z" fill="black"/>
<path d="M41.7486 21.9432V19.9638C41.9293 20.0089 42.3364 20.0089 42.5401 20.0089C43.6711 20.0089 44.282 19.534 44.6551 18.3124C44.6551 18.2898 44.8702 17.5886 44.8702 17.5772L40.5723 5.66699H43.2186L46.2276 15.3491H46.2726L49.2815 5.66699H51.8603L47.4035 18.1879C46.386 21.0723 45.2096 21.9997 42.7439 21.9997C42.5401 21.9997 41.9293 21.977 41.7486 21.9432Z" fill="black"/>
</svg>
